<?xml version="1.0" encoding="UTF-8" standalone="no"?>
<svg
   xmlns:dc="http://purl.org/dc/elements/1.1/"
   xmlns:cc="http://creativecommons.org/ns#"
   xmlns:rdf="http://www.w3.org/1999/02/22-rdf-syntax-ns#"
   xmlns:svg="http://www.w3.org/2000/svg"
   xmlns="http://www.w3.org/2000/svg"
   viewBox="0 0 721.94666 721.94666"
   height="721.94666"
   width="721.94666"
   xml:space="preserve"
   id="svg2"
   version="1.1"><metadata
     id="metadata8"><rdf:RDF><cc:Work
         rdf:about=""><dc:format>image/svg+xml</dc:format><dc:type
           rdf:resource="http://purl.org/dc/dcmitype/StillImage" /></cc:Work></rdf:RDF></metadata><defs
     id="defs6" /><g
     transform="matrix(1.3333333,0,0,-1.3333333,0,721.94667)"
     id="g10"><g
       transform="scale(0.1)"
       id="g12"><path
         id="path14"
         style="fill:#ffffff;fill-opacity:0;fill-rule:evenodd;stroke:none"
         d="M 0,5414.63 H 5414.63 V 0 H 0 v 5414.63 0" /><path
         id="path16"
         style="fill:#1b1919;fill-opacity:1;fill-rule:evenodd;stroke:none"
         d="m 2697.06,648.102 c 0,5.5 4.46,9.98 9.98,9.98 5.51,0 9.97,-4.48 9.97,-9.98 V 545.09 c 0,-5.5 -4.46,-9.969 -9.97,-9.969 -5.52,0 -9.98,4.469 -9.98,9.969 v 103.012 z m 19.95,235.07 V 739.969 c 0,-5.52 -4.46,-9.977 -9.97,-9.977 -5.52,0 -9.98,4.457 -9.98,9.977 v 143.203 h 19.95 z m 633.26,297.378 193.89,-468.109 c 2.09,-5.07 -0.34,-10.882 -5.42,-12.98 -5.08,-2.09 -10.9,0.34 -12.98,5.43 l -188.17,454.289 c 4.11,6.73 8.36,13.88 12.68,21.37 z M 1870.46,4701.13 c -2.09,5.08 0.34,10.9 5.42,12.98 5.08,2.09 10.89,-0.34 12.98,-5.42 l 193.63,-467.46 c -6.67,-1.88 -13.08,-3.77 -19.2,-5.62 l -192.83,465.52 z M 3655.08,1744.9 c -3.9,3.91 -3.9,10.23 0,14.12 3.89,3.91 10.21,3.91 14.11,0 l 574.47,-574.47 c 3.9,-3.89 3.9,-10.22 0,-14.12 -3.88,-3.89 -10.21,-3.89 -14.1,0 L 3655.08,1744.9 Z M 1170.96,4229.03 c -3.89,3.9 -3.89,10.22 0,14.12 3.9,3.89 10.22,3.89 14.11,0 l 342.05,-342.06 c 3.9,-3.89 3.9,-10.21 0,-14.11 -3.9,-3.89 -10.22,-3.89 -14.11,0 l -342.05,342.05 z M 3985.85,2166.45 c -5.09,2.08 -7.51,7.89 -5.42,12.97 2.08,5.07 7.89,7.5 12.98,5.42 l 715.81,-296.5 c 5.07,-2.09 7.5,-7.9 5.41,-12.98 -2.09,-5.09 -7.89,-7.51 -12.97,-5.43 l -715.81,296.52 z m -281.95,140.76 142.38,-61.41 c 5.06,-2.17 7.39,-8.04 5.21,-13.08 -2.16,-5.06 -8.03,-7.41 -13.08,-5.24 l -131.28,56.62 c -0.93,7.56 -2,15.27 -3.23,23.11 z M 1347.23,3259.4 c -5.08,2.08 -7.51,7.89 -5.42,12.97 2.09,5.07 7.9,7.5 12.98,5.41 l 23.36,-9.66 v -21.54 l -30.92,12.82 z m -641.82,265.85 c -5.082,2.08 -7.512,7.89 -5.422,12.97 2.09,5.08 7.903,7.5 12.981,5.41 l 565.191,-234.11 c 5.08,-2.08 7.51,-7.89 5.41,-12.98 -2.08,-5.07 -7.89,-7.5 -12.96,-5.42 l -565.2,234.13 z m 3751.47,-828.44 c -5.51,0 -9.98,4.47 -9.98,9.98 0,5.52 4.47,9.98 9.98,9.98 h 413.19 c 5.51,0 9.98,-4.47 9.98,-9.98 0,-5.51 -4.47,-9.98 -9.98,-9.98 h -413.19 z m -420.42,19.96 h 285.24 c 5.52,0 9.99,-4.47 9.99,-9.98 0,-5.51 -4.47,-9.98 -9.99,-9.98 h -285.24 v 19.96 z m -2791.78,-19.96 c -5.51,0 -9.98,4.47 -9.98,9.98 0,5.52 4.47,9.98 9.98,9.98 h 133.47 v -19.96 h -133.47 z m -700.125,0 c -5.508,0 -9.977,4.47 -9.977,9.98 0,5.52 4.469,9.98 9.977,9.98 h 618.365 c 5.51,0 9.98,-4.47 9.98,-9.98 0,-5.51 -4.47,-9.98 -9.98,-9.98 H 544.555 Z m 3491.905,571.3 665.2,275.53 c 5.08,2.08 10.88,-0.34 12.97,-5.42 2.09,-5.08 -0.34,-10.89 -5.41,-12.97 l -672.76,-278.68 v 21.54 z M 1230.63,2084.37 c -5.08,-2.09 -10.89,0.33 -12.98,5.41 -2.09,5.07 0.34,10.89 5.42,12.98 l 487.3,201.85 c -1.19,-7.73 -2.22,-15.36 -3.11,-22.82 L 1230.63,2084.37 Z M 712.969,1869.93 c -5.078,-2.08 -10.891,0.34 -12.981,5.43 -2.09,5.08 0.34,10.89 5.422,12.98 l 437.82,181.35 c 5.08,2.08 10.89,-0.34 12.98,-5.42 2.09,-5.08 -0.34,-10.88 -5.42,-12.97 L 712.969,1869.93 Z M 3945.47,3930.84 c -3.89,-3.9 -10.22,-3.9 -14.11,0 -3.9,3.9 -3.9,10.22 0,14.11 l 298.2,298.2 c 3.89,3.89 10.21,3.89 14.1,0 3.9,-3.9 3.9,-10.22 0,-14.12 l -298.19,-298.19 z m -149.28,-121.05 63.24,63.23 c 3.9,3.9 10.22,3.9 14.11,0 3.9,-3.9 3.89,-10.22 0,-14.11 l -79.18,-79.18 c 1.01,10.57 1.54,20.11 1.78,28.36 l 0.05,1.7 z M 1660.75,1646.11 c -3.9,-3.9 -10.22,-3.9 -14.11,0 -3.9,3.9 -3.9,10.22 0,14.11 l 158.91,158.92 c 2.85,-6.64 5.73,-13.18 8.62,-19.6 l -153.42,-153.43 z m -475.68,-475.68 c -3.89,-3.89 -10.21,-3.89 -14.11,0 -3.89,3.9 -3.89,10.23 0,14.12 l 419.3,419.3 c 3.9,3.89 10.21,3.89 14.11,0 3.89,-3.9 3.89,-10.22 0,-14.12 l -419.3,-419.3 z m 2152.97,3085.04 187.73,453.22 c 2.09,5.08 7.89,7.51 12.97,5.42 5.08,-2.08 7.51,-7.9 5.42,-12.98 l -189.62,-457.78 c -5.54,4.12 -11.05,8.15 -16.5,12.12 z M 1888.86,704.891 c -2.09,-5.09 -7.9,-7.52 -12.98,-5.43 -5.08,2.098 -7.51,7.91 -5.42,12.98 l 193.92,468.149 c 4.32,-7.5 8.56,-14.64 12.67,-21.38 L 1888.86,704.891 Z m 1180.58,271.871 10.82,-53.153 c 1.1,-5.379 -2.38,-10.621 -7.75,-11.718 -5.39,-1.11 -10.64,2.371 -11.74,7.75 l -10.09,49.558 c 5.42,2.012 11.71,4.492 18.76,7.563 z M 2334.37,4489.97 c -1.1,5.37 2.37,10.63 7.75,11.73 5.38,1.09 10.63,-2.37 11.73,-7.75 l 29.24,-143.7 c -6.47,-3.75 -12.49,-7.5 -18.03,-11.16 l -30.69,150.88 z M 3528.8,1506.72 3734.29,1202.07 c 3.07,-4.56 1.87,-10.75 -2.7,-13.83 -4.56,-3.07 -10.76,-1.87 -13.83,2.7 l -195.39,289.67 c 2.27,8.52 4.42,17.24 6.43,26.11 z M 1680.34,4211.5 c -3.08,4.57 -1.87,10.77 2.69,13.83 4.56,3.09 10.76,1.88 13.84,-2.67 l 45.31,-67.2 c -8.29,-0.47 -16,-0.98 -23.03,-1.48 l -38.81,57.52 z m 2097.18,-2225 c -4.58,3.04 -5.85,9.21 -2.8,13.79 3.03,4.59 9.21,5.85 13.8,2.82 l 443.41,-293.5 c 4.58,-3.03 5.84,-9.21 2.81,-13.79 -3.04,-4.58 -9.21,-5.85 -13.8,-2.82 l -443.42,293.5 z m -92.59,85.16 52.4,-34.69 c 4.59,-3.03 5.85,-9.21 2.82,-13.8 -3.03,-4.58 -9.22,-5.84 -13.8,-2.8 l -51.77,34.27 c 3.55,5.06 7.01,10.73 10.35,17.02 z M 1458.3,3521.54 c -4.58,3.04 -5.84,9.22 -2.81,13.8 3.04,4.59 9.22,5.85 13.8,2.82 l 22.36,-14.8 c 7.74,-13.93 16.36,-27.67 25.91,-41.03 l -59.26,39.21 z m -275.6,182.43 c -4.59,3.03 -5.85,9.2 -2.82,13.79 3.04,4.58 9.22,5.84 13.8,2.81 l 199.4,-131.98 c 4.59,-3.03 5.84,-9.21 2.81,-13.79 -3.04,-4.59 -9.22,-5.84 -13.8,-2.82 l -199.39,131.99 z m 2853.76,-1245.39 460.98,-89.59 c 5.4,-1.05 8.96,-6.26 7.92,-11.66 -1.03,-5.41 -6.26,-8.95 -11.66,-7.91 l -457.24,88.87 v 20.29 z M 917.172,3044.6 c -5.399,1.04 -8.945,6.25 -7.91,11.66 1.031,5.4 6.258,8.95 11.656,7.91 l 457.232,-88.88 V 2955 l -460.978,89.6 z m 3119.288,-57.24 454.03,92.38 c 5.38,1.09 10.63,-2.38 11.73,-7.77 1.1,-5.37 -2.38,-10.62 -7.76,-11.72 l -458,-93.18 v 20.29 z M 924.141,2333.85 c -5.387,-1.1 -10.641,2.36 -11.739,7.75 -1.093,5.37 2.379,10.64 7.758,11.73 l 457.99,93.17 v -20.28 l -454.009,-92.37 z m 2896.879,1136.18 391,263.73 c 4.57,3.08 10.76,1.88 13.84,-2.69 3.08,-4.57 1.87,-10.76 -2.7,-13.83 l -366.49,-247.21 h -35.65 z M 1202.6,1679.82 c -4.56,-3.09 -10.76,-1.88 -13.84,2.68 -3.07,4.56 -1.87,10.77 2.7,13.85 l 540.32,364.45 c 1.04,0.7 2.18,1.18 3.33,1.46 3.44,-5.63 7.01,-10.65 10.66,-15.06 -0.71,-1.13 -1.66,-2.13 -2.84,-2.92 L 1202.6,1679.82 Z m 2370.59,2353.23 131.29,198.36 c 3.05,4.59 9.22,5.84 13.8,2.81 4.58,-3.04 5.85,-9.22 2.8,-13.8 l -135.11,-204.17 c -4.2,5.66 -8.47,11.25 -12.78,16.8 z M 1710.14,1182.17 c -3.04,-4.59 -9.22,-5.84 -13.8,-2.81 -4.59,3.04 -5.84,9.23 -2.8,13.81 l 196.37,296.68 c 2.19,-8.73 4.51,-17.28 6.91,-25.63 l -186.68,-282.05 z m 1313.89,3206.23 21.1,108.53 c 1.03,5.41 6.25,8.94 11.66,7.91 5.39,-1.03 8.93,-6.25 7.91,-11.66 l -22.19,-114.12 c -6.15,3.17 -12.31,6.27 -18.48,9.34 z M 2369.5,916.648 c -1.03,-5.398 -6.26,-8.929 -11.65,-7.906 -5.41,1.028 -8.95,6.25 -7.92,11.649 l 9.8,50.41 c 8.16,-3.129 14.64,-5.242 19.02,-6.571 l -9.25,-47.582 z m 541.49,17.192 26.14,-239.352 c 0.58,-5.449 -3.39,-10.359 -8.86,-10.929 -5.46,-0.579 -10.37,3.363 -10.94,8.832 l -25.58,234.269 c 6.38,2.309 12.81,4.692 19.24,7.18 z M 2477.5,4719.08 c -0.59,5.46 3.38,10.37 8.85,10.95 5.46,0.58 10.37,-3.38 10.94,-8.85 l 26.79,-245.13 c -6.62,-0.09 -13.28,-0.34 -19.96,-0.76 l -26.62,243.79 z M 3481.18,1274.51 c -2.64,4.83 -0.88,10.89 3.95,13.53 4.82,2.64 10.88,0.88 13.52,-3.94 l 191.04,-348.44 c 2.64,-4.82 0.89,-10.871 -3.94,-13.519 -4.82,-2.661 -10.88,-0.891 -13.51,3.937 L 3481.18,1274.51 Z M 1724.94,4477.92 c -2.65,4.83 -0.89,10.88 3.93,13.53 4.83,2.64 10.88,0.89 13.53,-3.94 l 182.83,-333.48 c -7.91,0.67 -15.8,1.24 -23.67,1.73 l -176.62,322.16 z M 3980.3,1671.74 c -4.28,3.44 -4.97,9.72 -1.52,14 3.45,4.29 9.72,4.96 13.99,1.53 l 299.93,-240.86 c 4.28,-3.45 4.97,-9.71 1.52,-14 -3.45,-4.28 -9.72,-4.97 -14,-1.52 l -299.92,240.85 z m -324.86,286.41 190.96,-153.34 c 4.28,-3.44 4.97,-9.72 1.52,-13.99 -3.45,-4.29 -9.71,-4.98 -13.99,-1.52 l -183.58,147.42 0.83,3.22 c 1.53,6.06 2.95,12.12 4.26,18.21 z M 1121.93,3967.18 c -4.29,3.45 -4.97,9.71 -1.52,13.98 3.44,4.29 9.71,4.97 13.99,1.53 l 296.02,-237.72 c 0.22,-8.35 0.75,-17.33 1.63,-26.84 l -310.12,249.05 z M 4275.85,2238.75 c -5.26,1.53 -8.31,7.05 -6.79,12.33 1.55,5.27 7.05,8.3 12.33,6.78 l 372.93,-108.82 c 5.27,-1.52 8.31,-7.04 6.77,-12.31 -1.52,-5.28 -7.04,-8.31 -12.31,-6.8 l -372.93,108.82 z m -361,126.06 186.4,-54.39 c 5.27,-1.53 8.31,-7.05 6.78,-12.32 -1.53,-5.28 -7.04,-8.3 -12.32,-6.78 l -251.84,73.49 h 70.98 z M 760.309,3264.54 c -5.282,1.53 -8.313,7.04 -6.786,12.32 1.528,5.27 7.043,8.31 12.317,6.77 l 572.48,-167.03 c 5.27,-1.53 8.31,-7.05 6.78,-12.32 -1.52,-5.28 -7.04,-8.31 -12.32,-6.79 L 760.309,3264.54 Z M 4315.84,2872.47 c -5.46,-0.57 -10.36,3.38 -10.95,8.85 -0.57,5.47 3.38,10.38 8.85,10.96 l 405.85,44.32 c 5.48,0.59 10.38,-3.38 10.96,-8.85 0.58,-5.45 -3.38,-10.37 -8.85,-10.95 l -405.86,-44.33 z m -279.38,-10.49 91.11,9.95 c 5.46,0.59 10.37,-3.37 10.95,-8.84 0.58,-5.47 -3.38,-10.37 -8.85,-10.96 l -93.21,-10.18 v 20.03 z M 695.027,2476.96 c -5.472,-0.57 -10.375,3.39 -10.949,8.86 -0.582,5.47 3.379,10.38 8.844,10.96 l 573.528,62.64 c 5.46,0.58 10.36,-3.37 10.94,-8.85 0.59,-5.47 -3.38,-10.36 -8.85,-10.95 l -573.513,-62.66 z m 3406.683,982.93 c -4.83,-2.64 -10.89,-0.88 -13.54,3.95 -2.64,4.81 -0.88,10.88 3.94,13.52 l 386.33,211.81 c 4.83,2.65 10.88,0.88 13.53,-3.94 2.64,-4.82 0.88,-10.88 -3.94,-13.53 L 4101.71,3459.89 Z M 1577.96,2076.27 c -4.82,-2.65 -10.88,-0.89 -13.53,3.94 -2.64,4.82 -0.88,10.87 3.94,13.52 l 135.69,74.86 c 0.58,-7.82 1.32,-15.03 2.17,-21.57 l -128.27,-70.75 z M 936.184,1724.42 c -4.821,-2.65 -10.875,-0.89 -13.528,3.93 -2.644,4.82 -0.886,10.87 3.938,13.53 l 477.336,261.69 c 4.82,2.65 10.87,0.88 13.52,-3.94 2.65,-4.81 0.88,-10.88 -3.93,-13.52 L 936.184,1724.42 Z m 2763.236,2233.69 268.28,334.07 c 3.44,4.29 9.71,4.96 13.99,1.51 4.28,-3.44 4.97,-9.7 1.52,-13.98 l -273.92,-341.12 c -3.25,6.78 -6.55,13.29 -9.87,19.52 z M 1870.19,1657.19 c -1.48,0.31 -2.91,0.97 -4.18,1.98 -4.28,3.45 -4.97,9.71 -1.52,14 l 7.42,9.24 c -0.82,-8.39 -1.39,-16.8 -1.72,-25.22 z m -423.27,-535.78 c -3.43,-4.29 -9.7,-4.96 -13.99,-1.53 -4.28,3.44 -4.96,9.7 -1.51,13.99 l 315.52,392.92 c 3.45,4.29 9.71,4.96 13.99,1.52 4.29,-3.45 4.97,-9.72 1.53,-13.99 l -315.54,-392.91 z m 1731.55,3235.6 86.6,296.79 c 1.51,5.27 7.03,8.31 12.3,6.78 5.28,-1.53 8.31,-7.04 6.78,-12.32 l -86.86,-297.69 -2.63,-2.68 c -5.82,3.33 -11.24,6.37 -16.19,9.12 z M 2149.57,759.789 c -1.54,-5.277 -7.05,-8.309 -12.32,-6.789 -5.27,1.539 -8.31,7.039 -6.78,12.32 l 87.04,298.3 c 5.43,-5.3 10.86,-10.35 16.29,-15.14 l -84.23,-288.691 z m 1061.37,317.881 89.73,-296.471 c 1.61,-5.269 -1.38,-10.828 -6.66,-12.418 -5.26,-1.59 -10.84,1.379 -12.43,6.668 l -86.6,286.051 c 5.32,5.14 10.65,10.52 15.96,16.17 z M 2217.41,4290.6 c -1.58,5.27 1.39,10.84 6.67,12.43 5.27,1.59 10.84,-1.39 12.43,-6.66 l 7.24,-23.93 c -6.8,-0.74 -13.51,-1.54 -20.12,-2.39 l -6.22,20.55 z m -103.47,341.78 c -1.59,5.27 1.4,10.83 6.67,12.42 5.27,1.6 10.84,-1.39 12.43,-6.66 l 61.27,-202.37 c 1.59,-5.28 -1.39,-10.84 -6.67,-12.43 -5.27,-1.6 -10.84,1.39 -12.43,6.66 l -61.27,202.38 z m 1434.59,-2936.09 443.83,-541.44 c 3.49,-4.24 2.87,-10.5 -1.36,-13.98 -4.24,-3.51 -10.51,-2.88 -14,1.35 l -433.29,528.57 c -0.34,4.89 -0.75,9.81 -1.28,14.68 1.9,3.32 3.93,6.94 6.1,10.82 z M 1422.26,4258.73 c -3.49,4.24 -2.88,10.51 1.37,14 4.24,3.48 10.5,2.87 13.99,-1.38 l 106.95,-130.46 c -1.75,-6.8 -3.67,-15.04 -5.54,-24.61 l -116.77,142.45 z M 3854.59,2081.46 c -4.84,2.59 -6.68,8.6 -4.1,13.45 2.58,4.86 8.61,6.67 13.46,4.09 l 624.5,-334.24 c 4.83,-2.59 6.67,-8.62 4.08,-13.45 -2.58,-4.85 -8.6,-6.69 -13.45,-4.1 l -624.49,334.25 z m -143.23,99.61 24.67,-13.58 c 4.82,-2.65 6.58,-8.7 3.94,-13.52 -2.66,-4.83 -8.71,-6.59 -13.52,-3.94 l -16.64,9.15 c 0.65,6.77 1.18,14.09 1.55,21.89 z M 926.184,3648.83 c -4.844,2.58 -6.676,8.6 -4.094,13.44 2.582,4.85 8.601,6.68 13.445,4.1 l 442.615,-236.91 v -22.54 l -451.966,241.91 z m 3110.276,-1063.7 676.92,-67.06 c 5.47,-0.54 9.45,-5.4 8.92,-10.87 -0.54,-5.47 -5.41,-9.46 -10.87,-8.93 l -674.97,66.87 v 19.99 z M 701.254,2895.5 c -5.473,0.55 -9.469,5.41 -8.93,10.88 0.543,5.47 5.41,9.46 10.875,8.92 l 674.951,-66.85 v -20 l -676.896,67.05 z m 3335.206,224.1 596.44,180.56 c 5.27,1.59 10.83,-1.39 12.42,-6.66 1.6,-5.28 -1.38,-10.85 -6.67,-12.44 l -602.19,-182.31 v 20.85 z M 781.734,2113.43 c -5.281,-1.59 -10.843,1.38 -12.433,6.65 -1.59,5.27 1.39,10.85 6.668,12.44 l 767.291,232.29 h 68.85 L 781.734,2113.43 Z m 2964.116,1457.55 513.4,420.86 c 4.24,3.48 10.5,2.88 13.99,-1.36 3.48,-4.25 2.87,-10.51 -1.36,-13.99 l -514.95,-422.13 c -3.39,5.49 -7.08,11.06 -11.08,16.62 z M 1155.38,1421.74 c -4.25,-3.49 -10.51,-2.88 -14,1.37 -3.48,4.23 -2.87,10.49 1.37,13.98 l 619.49,507.83 c 0.4,-1.66 0.81,-3.31 1.24,-4.98 1.36,-5.37 2.81,-10.77 4.34,-16.15 l -612.44,-502.05 z m 2312.46,2727.07 181.51,339.11 c 2.58,4.85 8.61,6.67 13.45,4.09 4.85,-2.58 6.66,-8.6 4.08,-13.44 l -184.16,-344.09 c -4.92,4.83 -9.89,9.61 -14.88,14.33 z M 1765.27,925.672 c -2.57,-4.863 -8.6,-6.692 -13.44,-4.102 -4.84,2.578 -6.67,8.61 -4.1,13.442 l 205.08,383.168 c 5.86,-12.02 9.56,-18.76 9.62,-18.86 l 3.53,1.29 -200.69,-374.938 z m 1105.41,3531.298 25.35,255.88 c 0.53,5.47 5.41,9.47 10.87,8.93 5.47,-0.54 9.46,-5.41 8.93,-10.88 l -25.94,-261.78 c -6.46,2.68 -12.88,5.29 -19.21,7.85 z M 2518.6,700.73 c -0.54,-5.48 -5.41,-9.46 -10.88,-8.921 -5.46,0.531 -9.46,5.402 -8.92,10.871 l 22.25,224.66 c 6.48,-2.328 12.93,-4.559 19.33,-6.68 L 2518.6,700.73 Z m 178.74,4168.81 c 0,5.52 4.46,9.98 9.97,9.98 5.51,0 9.98,-4.47 9.98,-9.98 v -355.99 c -7.4,2.47 -14.07,4.65 -19.95,6.56 v 349.43 0" /><path
         id="path18"
         style="fill:#1b1919;fill-opacity:1;fill-rule:evenodd;stroke:none"
         d="m 3021.47,4206.21 c -56.25,58.24 -192.16,183.3 -376.01,247.49 0,0.01 408.03,-121.01 576.73,-290.29 0.01,0 -21.38,77.07 -78.22,132.94 0,0.01 379.77,-213.34 473.03,-503.65 l 0.71,-1.96 c 2.97,12.03 4.39,22.49 5.01,30.5 -3.22,48.77 -12.71,120.64 -40.35,170.14 0,0 118.26,-127.5 81.4,-278.67 0.01,0 45.11,46.85 53.22,124.54 0.01,0.01 12.33,-129.59 -73.72,-230.2 l 55.06,-15.55 c -24.38,5.28 -77.25,-12.11 -86.46,-15.26 l -0.76,-0.6 c 76.65,-16.03 102.88,-116.41 102.88,-116.41 -36.43,44.2 -103.1,43.52 -103.1,43.52 0,0 68.47,-35.89 50.98,-79.64 -9.24,-23.12 -13.56,-67.58 -15.54,-104.45 h -296.74 c 27.09,50.83 31.98,119.67 31.98,119.67 -29.06,-55.99 -68.45,-48.2 -68.45,-48.2 13.78,19.3 22.2,38.1 27.16,55.31 -25.68,-13.18 -47.85,-20.42 -47.85,-20.42 0.02,0 19.35,53.02 10.51,141.75 0,0 -47.52,-112.63 -121.41,-141.05 -73.84,-28.4 -121.03,8.01 -188.1,-24.16 -67.07,-32.13 -159.31,4.24 -187.71,33.04 0,0 -164.03,-75.32 -248.59,-65.2 -84.52,10.1 -70.98,47.71 -132.57,24.01 -61.54,-23.67 -321.63,-26.06 -486.7,101.46 0,0 7.52,-15.84 23.52,-37.36 l 14.13,-2.15 -11.24,-1.69 c 20.51,-26.74 53.47,-60.98 100.58,-84.91 0,0 -59.54,-2.51 -137.12,4.87 16.42,-13.12 35.74,-25.97 57.63,-36.08 0,0.01 -25.44,-12.21 -49.04,-18.89 h -216.15 c -2.06,12.82 -3.1,25.1 -2.33,35.26 2.15,28.86 26.29,44.6 41.69,51.77 -5.46,1.72 -10.88,3.53 -16.27,5.43 l -51.8,0.91 30.69,7.07 c -14.36,5.81 -28.19,12.31 -41.21,19.52 -144.33,79.95 -175.87,256.2 -171.48,327.11 0,0 115.5,-201.96 313.33,-242.27 0,0 -112.04,63.1 -169.9,138.04 0,0 156.98,-66.52 282.99,-79.9 0.01,0 -216.46,98.25 -274.98,200.97 -58.55,102.74 -77.73,238.64 -77.73,238.64 0,0.01 256.39,-373.63 739.47,-480.12 0,0 -512.05,397.07 -594.09,427.89 0,0 595.68,-292.75 742.95,-433.47 0,0 -252.85,283.36 -412.3,376 0,0 246.77,-75.12 347.79,-155.18 0,0 -230.32,237.41 -592.11,296.04 l -71.4,37.38 c 0,0 624.28,7.77 1049.28,-399.89 0.02,0 -136.97,230.47 -398.48,375.46 0,0.01 344.03,-52.78 603.11,-372.74 -74.2,225.64 -512.03,542.57 -885.65,418.02 l -103.22,21.22 c 0,0 308.89,147.88 643.36,7.06 334.46,-140.8 379.28,-239.56 379.28,-239.56 0.02,0 -156.81,255.5 -324.14,277.36 0,0.01 138.5,-5.19 200.76,-54.32 0,0 -227.38,224.94 -527.23,130.69 0.01,0.01 81.22,90.34 274.99,76.37 0,0 -45.9,60.47 -116.69,77.22 0.01,0 217.19,-32.4 429.07,-206.76 211.86,-174.35 269,-498.86 269,-498.86 0,0 -1.27,242.69 -96.87,374.56 0,0 197.36,-191.14 219.43,-434.64 0,0 15.71,418.9 -312.72,535.18 l -25.29,30.09 z m 131.2,-2653.27 c 24.98,7.62 61.6,20.77 79.8,36.76 0.01,0 -12.41,-51.97 -34.25,-58.08 -11.9,-3.31 -38.07,-4.12 -59.38,-4.13 -14.22,-24.49 -27.87,-42.68 -36.66,-44.18 -25.46,-4.35 -56.62,16.42 -56.01,33.89 0.64,17.44 48.51,30.05 48.51,30.05 0.02,0 79.88,125.7 52.28,116.86 -27.58,-8.82 -99.08,-89.53 -148.59,-176.63 -27.31,-62.01 -50.7,-126.3 -47.73,-169.42 0.01,0 -78.43,-6.65 -74.79,34.69 0.47,5.42 3.37,14.11 8.1,25.22 -36.64,-6.28 -75.97,-13.28 -117.79,-21.25 -197.81,-37.64 -297.2,-89.5 -311.76,-153.29 -58.45,16.16 -52.95,55.57 -42.29,77.03 17.32,34.91 86.49,59.31 141.12,76.1 102.46,31.49 233.19,49.94 351.9,65.58 17.91,34.97 41.57,77.78 63.79,119.07 -14.32,-6.08 -27.41,-7.83 -36.92,-8.04 -23.92,-42.08 -58.83,-81.98 -82.29,-86.45 -25.62,-4.89 -69.25,12.89 -71.52,32.75 -0.29,2.42 -0.33,5.01 -0.09,7.85 -20.9,-29.42 -45.94,-58.36 -62.33,-56.39 -32.76,3.93 -42.38,18.9 -42.8,33.87 -0.43,14.98 32.38,72.44 85.15,142.65 0,0 -96.66,-64.97 -161.43,-209.85 0,0 -54.13,7.86 -46.74,46.68 12.86,67.53 167.38,240.91 150.96,320.57 73.46,-8.84 64.09,-48.32 44.51,-78.95 -41.67,-65.26 -112.54,-182.26 -112.54,-182.26 0.01,0 124.65,147.8 139.27,149.11 14.63,1.32 42.66,-14.04 42.59,-21.77 -0.09,-7.74 -90.18,-136.43 -76.95,-137.39 9.56,-0.66 46.67,38.74 66.59,60.75 2.13,3.93 4.42,8.07 6.84,12.35 49.08,86.94 91.97,124.24 131.09,107.84 36.39,-15.28 18.7,-52.6 6.55,-67.72 6.56,-3.81 9.06,-13.71 3.03,-30.96 -2.37,-6.85 -5.34,-13.98 -8.74,-21.25 25.22,9.62 44.16,28.86 56.39,44.76 18.18,35.69 31.9,65.87 34.9,82.29 0.01,0 39.72,-3.55 40.92,-13.12 1.33,-10.41 -9.86,-36.9 -26.02,-71.54 33.97,40.8 76.02,88.12 93.31,94.45 31.06,11.43 54.24,-13.94 53.38,-27.44 -1.14,-17.41 -21.19,-67.84 -43.36,-111.06 v 0 z m 62.12,-65.35 c 10.17,-3.9 16.1,-34.43 -30.62,-52.02 -36.13,-13.63 -101.5,-24.68 -191.41,-39.46 3.97,12.81 8.64,26.08 13.78,39.52 102.42,14.18 183.27,28.56 208.25,51.96 v 0 z m -280.74,119.92 c -8.48,0.01 -20.15,-2.72 -29.52,-24.89 -14.97,-35.49 -3.47,-47.69 -3.47,-47.69 0.01,0 -34.21,-63.03 -55.31,-50.45 -21.09,12.61 15.18,81.66 51.23,127.73 18.65,23.8 30.55,29.06 37.01,27.07 12.02,-3.71 2.33,-24.31 0.06,-31.77 v 0 z m 626.86,908.67 c 4.76,-24.67 13.74,-54.41 28.81,-90.85 76.5,-185.24 30.1,-355.1 25.08,-289.95 -5.02,65.12 -51.43,159.65 -51.43,159.65 21.33,-72.82 42.66,-212.03 11.29,-335.95 -31.33,-123.91 -114.11,-257.69 -114.11,-257.69 31.36,-166.06 -77.75,-364.74 -77.75,-364.74 12.55,58.76 -10.02,155.83 -10.02,155.83 -2.49,-171.17 -145.47,-356.39 -145.47,-356.39 40.12,84.27 31.34,200.52 31.34,200.52 -60.17,-252.92 -248.27,-297.65 -248.27,-297.65 17.56,24.26 18.82,60.05 18.82,60.05 -86.34,-94.38 -266.34,-129.319 -321.87,-138.1 -55.53,8.781 -235.52,43.72 -321.87,138.1 0,0 1.24,-35.79 18.8,-60.05 0,0 -188.06,44.73 -248.27,297.65 0,0 -8.78,-116.25 31.34,-200.52 0,0 -142.92,185.22 -145.44,356.39 0.01,0 -22.56,-97.07 -10.04,-155.83 0,0 -109.08,198.68 -77.75,364.74 0,0 -82.75,133.78 -114.1,257.69 -31.36,123.92 -10.05,263.13 11.27,335.95 0,0 -46.4,-94.53 -51.4,-159.65 -5.03,-65.15 -51.42,104.71 25.1,289.95 11.4,27.62 19.29,51.37 24.53,72 -3.29,5.95 -6.51,12.34 -9.34,18.85 h 77.33 c 0.92,-2.58 1.44,-3.99 1.44,-3.99 0,0.02 -36.38,-68.95 -45.16,-125.14 0,0 62.71,81.75 126.67,102.19 0,0 -81.51,-115 -102.84,-236.36 -11.08,-63.01 12.37,-128.43 49.74,-176.42 -18.87,30.96 -26.99,68.46 -21.88,111.31 17.58,146.89 136.68,203.44 136.68,203.44 -47.65,-1.63 -107.83,-51.42 -107.83,-51.42 133.68,163.4 356.78,81.38 287.79,-22.37 3.74,76.63 -159.24,84.32 -178.08,-22.98 -18.8,-107.3 60.2,-145.64 60.2,-145.64 -86.52,10.24 -114.11,74.1 -114.11,74.1 0,0 -2.51,-116.24 144.21,-111.14 146.71,5.11 278.38,162.24 278.38,162.24 -61.45,-24.26 -141.68,-77.93 -141.68,-77.93 0,0 66.44,112.4 186.81,140.52 94.35,22.03 191.75,-24.97 229.5,-46.34 37.74,21.39 135.14,68.37 229.48,46.34 120.39,-28.12 186.85,-140.52 186.85,-140.52 0,0 -80.26,53.67 -141.72,77.93 0,0 131.7,-157.13 278.4,-162.24 146.72,-5.1 144.21,111.14 144.21,111.14 0.01,0 -27.59,-63.88 -114.11,-74.1 0,0 79,38.34 60.18,145.64 -18.79,107.3 -181.84,99.61 -178.07,22.98 -68.99,103.75 154.13,185.77 287.81,22.37 0,0 -60.19,49.79 -107.84,51.42 0,0 119.13,-56.55 136.68,-203.44 5.11,-42.83 -3,-80.34 -21.87,-111.27 37.37,47.96 60.79,113.37 49.72,176.38 -21.31,121.36 -102.82,236.36 -102.82,236.36 63.95,-20.44 126.64,-102.19 126.64,-102.19 -8.75,56.19 -45.14,125.14 -45.14,125.14 0.01,0.02 0.51,1.41 1.45,3.99 h 63.73 z M 3262.48,1979.6 c -27.65,-1.03 -57.12,0.59 -88.03,5.06 -194.38,28.13 -341.08,175 -341.08,175 0,0 107.85,-154.55 305.98,-194.16 0,0 -310.04,22.25 -432.02,164.29 -121.98,-142.04 -432.01,-164.29 -432.01,-164.29 198.14,39.61 305.96,194.16 305.96,194.16 0.01,0 -146.71,-146.87 -341.07,-175 -30.9,-4.47 -60.39,-6.09 -88.04,-5.06 0,0 94.07,-55.03 213.22,-47.32 0,0 -31.31,-21.47 -40.08,-59.79 -3.46,-15.15 110.99,-63.28 201.61,-77.37 -125.06,-27.19 -290.25,-142.13 -285.14,-225.76 6.59,-108.41 207.6,-106.83 239.81,-139.69 20.41,-20.81 -170.56,-36.64 -190.36,-83.46 -14.68,-34.71 4.1,-73.41 43.32,-85.98 19.84,95.13 192.67,106.25 196.69,159.51 4.15,55.19 -158.48,64.29 -192.11,119.61 -63.86,105.1 235.33,251.99 275.96,215.14 39.73,-36.06 -69.58,-140.89 -108.5,-163.4 0.01,0 9.64,20.39 5.7,59.31 0.01,0 -19.42,-55.76 -89.59,-113.9 0.01,0 26.88,-42.98 50.49,-38.74 52.49,9.41 265.96,206.86 164.55,286.17 -7.62,5.95 -16.73,10.23 -26.99,13.02 17.34,6.63 26.62,19.45 23,40.79 -5.02,29.36 -102.84,54.92 -142.98,76.63 0,0 136.93,-11.07 216.56,-12.59 79.61,1.52 216.57,12.59 216.57,12.59 -40.14,-21.71 -137.97,-47.27 -142.99,-76.63 -19.03,-111.49 321.62,7.07 315.72,32.82 -8.78,38.31 -47.33,61.72 -47.33,61.72 119.09,-7.71 213.17,47.32 213.17,47.32 h 0.01 v 0" /><path
         id="path20"
         style="fill:#1b1919;fill-opacity:1;fill-rule:evenodd;stroke:none"
         d="m 1464.21,2437.71 h 413.78 v 78.47 h -413.78 v -78.47 z m 2072.44,0 h 413.75 v 78.47 h -413.75 v -78.47 z m 0,880.95 h 413.75 v 78.47 h -413.75 v -78.47 z m -2072.44,0 h 413.78 v 78.47 h -413.78 v -78.47 0" /><path
         id="path22"
         style="fill:#1b1919;fill-opacity:1;fill-rule:evenodd;stroke:none"
         d="m 3788.19,3104.8 c 10.24,0 14.52,-5.13 14.52,-16.22 v -114.4 c 0,-17.92 -4.28,-24.76 -15.37,-28.16 l -69.15,-25.62 v 184.4 h 70 z m 79.39,-268.91 c 20.49,6.84 33.29,11.95 42.68,21.34 16.22,17.08 24.76,41.83 24.76,76.83 v 183.53 c 0,34.16 -8.55,59.76 -24.76,76.83 -16.22,15.38 -47.81,23.91 -95.61,23.91 h -227.92 v -597.55 h 131.46 v 162.19 l 32.44,11.09 65.73,-173.28 h 134.02 l -82.8,215.11 z m -370.18,268.05 h -165.59 v -125.49 h 142.55 v -115.24 h -142.55 v -126.34 h 165.59 v -115.25 h -299.63 v 115.25 h 0.86 v 482.31 h 298.77 v -115.24 z m -530.65,-373.05 c 10.24,0 15.37,5.13 15.37,15.37 v 94.76 c 0,10.24 -5.13,16.21 -15.37,16.21 l -70,-23.9 v -102.44 h 70 z m 0,241.59 c 13.65,6.83 15.37,17.07 15.37,27.32 v 82.8 c 0,10.24 -5.13,15.36 -15.37,15.36 h -70 v -149.38 l 70,23.9 z m -203.18,240.72 h 226.22 c 48.67,0 80.24,-8.53 97.33,-24.75 16.21,-16.22 23.89,-41.83 23.89,-76.83 v -110.97 c 0,-35 -14.52,-60.61 -45.25,-76.83 -7.67,-3.42 -11.94,-6.84 -11.94,-9.39 0,-2.56 4.27,-5.12 11.94,-8.54 33.3,-17.07 49.52,-42.68 49.52,-77.69 v -110.96 c 0,-34.15 -7.67,-60.62 -23.9,-76.83 -17.07,-16.22 -49.51,-24.76 -97.32,-24.76 h -230.49 v 597.55 z m -205.41,-108.4 c 10.24,0 14.51,-5.13 14.51,-16.22 l 0.01,-114.4 c 0,-17.92 -4.28,-24.76 -15.37,-28.16 l -69.15,-25.62 v 184.4 h 70 z m 79.39,-268.91 c 20.49,6.84 33.29,11.95 42.68,21.34 16.22,17.08 24.76,41.83 24.76,76.83 v 183.53 c 0,34.16 -8.54,59.76 -24.76,76.83 -16.22,15.38 -47.8,23.91 -95.61,23.91 H 2356.7 v -597.55 h 131.46 v 162.19 l 32.44,11.09 65.73,-173.28 h 134.03 l -82.81,215.11 z m -591.27,-19.63 88.78,32.44 -40.97,268.89 -47.81,-301.33 z m 153.66,402.92 108.41,-597.56 h -133.17 l -19.64,112.69 -130.6,-46.95 -11.95,-65.74 h -133.17 l 108.41,597.56 h 211.71 z m -505.05,-488.29 c 10.24,0 15.36,5.13 15.36,15.37 v 94.76 c 0,10.24 -5.12,16.21 -15.36,16.21 l -70,-23.9 v -102.44 h 70 z m 0,241.59 c 13.65,6.83 15.36,17.07 15.36,27.32 v 82.8 c 0,10.24 -5.12,15.36 -15.36,15.36 h -70 v -149.38 l 70,23.9 z m -203.18,240.72 h 226.22 c 48.66,0 80.25,-8.53 97.32,-24.75 16.22,-16.22 23.91,-41.83 23.91,-76.83 v -110.97 c 0,-35 -14.52,-60.61 -45.25,-76.83 -7.68,-3.42 -11.95,-6.84 -11.95,-9.39 0,-2.56 4.27,-5.12 11.95,-8.54 33.29,-17.07 49.51,-42.68 49.51,-77.69 v -110.96 c 0,-34.15 -7.68,-60.62 -23.9,-76.83 -17.07,-16.22 -49.51,-24.76 -97.32,-24.76 h -230.49 v 597.55 0" /></g></g></svg>
